<svg width="16" height="19" viewBox="0 0 16 19" fill="none" xmlns="http://www.w3.org/2000/svg">
<path d="M8 1.5L8.00006 0.5H7.99995L8 1.5ZM13.5967 6.56836L12.6015 6.66614L12.6826 7.49179L13.509 7.56451L13.5967 6.56836ZM13.4844 9.09375V10.0938V9.09375ZM2.40137 6.56836L2.49054 7.56438L3.31559 7.49051L3.39658 6.66612L2.40137 6.56836ZM8 1.5L7.99994 2.5C10.3989 2.50015 12.3717 4.32767 12.6015 6.66614L13.5967 6.56836L14.5919 6.47058C14.2626 3.11875 11.4383 0.500219 8.00006 0.5L8 1.5ZM13.5967 6.56836L13.509 7.56451C13.6446 7.57644 13.75 7.69093 13.75 7.82812H14.75H15.75C15.75 6.6431 14.8414 5.67402 13.6843 5.57221L13.5967 6.56836ZM14.75 7.82812H13.75C13.75 7.97483 13.6311 8.09375 13.4844 8.09375V9.09375V10.0938C14.7356 10.0938 15.75 9.0794 15.75 7.82812H14.75ZM13.4844 9.09375V8.09375H2.51562V9.09375V10.0938H13.4844V9.09375ZM2.51562 9.09375V8.09375C2.36892 8.09375 2.25 7.97483 2.25 7.82812H1.25H0.25C0.25 9.0794 1.26435 10.0938 2.51562 10.0938V9.09375ZM1.25 7.82812H2.25C2.25 7.69089 2.35531 7.57648 2.49054 7.56438L2.40137 6.56836L2.31219 5.57234C1.1566 5.67581 0.25 6.64446 0.25 7.82812H1.25ZM2.40137 6.56836L3.39658 6.66612C3.62626 4.32802 5.60062 2.50011 8.00005 2.5L8 1.5L7.99995 0.5C4.56208 0.500164 1.73548 3.11823 1.40616 6.47059L2.40137 6.56836Z" fill="#65185C"/>
<line x1="8.25" y1="1" x2="8.25" y2="3.5" stroke="#65185C" stroke-width="2" stroke-linecap="round"/>
<line x1="13.25" y1="3.66421" x2="11.6642" y2="5.25" stroke="#65185C" stroke-width="2" stroke-linecap="round"/>
<line x1="4.33579" y1="5.25" x2="2.75" y2="3.66421" stroke="#65185C" stroke-width="2" stroke-linecap="round"/>
<path d="M4 11C5.90288 13.8543 10.0971 13.8543 12 11" stroke="#65185C" stroke-width="2" stroke-linecap="round"/>
<path d="M1 18C4.70577 13.7648 11.2942 13.7648 15 18" stroke="#65185C" stroke-width="2" stroke-linecap="round"/>
</svg>
